# Blender 5.2.2 LTS
# www.blender.org
mtllib testBlock0.mtl
o 立方体
v -0.500000 0.000000 0.500000
v -0.500000 1.000000 0.500000
v -0.500000 0.000000 -0.500000
v -0.500000 1.000000 -0.500000
v 0.500000 0.000000 0.500000
v 0.500000 1.000000 0.500000
v 0.500000 0.000000 -0.500000
v 0.500000 1.000000 -0.500000
vn -1.0000 -0.0000 -0.0000
vn -0.0000 -0.0000 -1.0000
vn 1.0000 -0.0000 -0.0000
vn -0.0000 -0.0000 1.0000
vn -0.0000 -1.0000 -0.0000
vn -0.0000 1.0000 -0.0000
vt 1.000000 0.000000
vt 0.000000 1.000000
vt 0.000000 0.000000
vt 1.000000 1.000000
s 0
usemtl 材质
f 2/1/1 3/2/1 1/3/1
f 4/1/2 7/2/2 3/3/2
f 8/1/3 5/2/3 7/3/3
f 6/1/4 1/2/4 5/3/4
f 7/1/5 1/2/5 3/3/5
f 4/1/6 6/2/6 8/3/6
f 2/1/1 4/4/1 3/2/1
f 4/1/2 8/4/2 7/2/2
f 8/1/3 6/4/3 5/2/3
f 6/1/4 2/4/4 1/2/4
f 7/1/5 5/4/5 1/2/5
f 4/1/6 2/4/6 6/2/6
